<svg id="Layer_1" data-name="Layer 1" xmlns="http://www.w3.org/2000/svg" viewBox="0 0 300 100"><title>Marcas</title><path d="M35.54,67.69a15.1,15.1,0,0,1-2.13.29c-15.32.88-22.13-4.27-22.9-10-.88-6.43,5.9-13.58,16.77-13.6,3.8,0,8.08.26,10.9,3.44a.27.27,0,0,1-.39.38c-4.74-4.31-17.65-2.7-20.56,1.83-2,3.08-1.29,5.64.59,7.95h0a15.77,15.77,0,0,0,1.26,1.35c2.94,2.84,7.49,5.27,16.49,7.8a.27.27,0,0,1,0,.53M31.06,33.94a15.3,15.3,0,0,1,2.14-.29c32.58-1.87,26.64,23.52,6.13,23.57-3.8,0-8.09-.26-10.9-3.44a.27.27,0,0,1,.38-.38c4.74,4.31,17.65,2.7,20.56-1.84,2.38-3.69.91-6.63-1.85-9.29C44.58,39.43,40,37,31,34.47a.27.27,0,0,1,0-.53M4.23,43.39c0-.12.09-.27.18-.46a2.86,2.86,0,0,1,.45-.7c6.73-8,19.68-7.94,29.64-4.88,9.7,3,17.49,9.26,12.24,14-1.94,1.76-4.57,3.51-11.13,3.2a.27.27,0,1,1,0-.54c9.94,0,12.92-6.51,7.19-9.87-5.14-3-11-3.84-16.9-3.93-6.28-.1-12.62.74-21.34,3.51a.26.26,0,0,1-.34-.36m36.48,1.45c-5.05-4.5-18.92-4.33-29-1.39C2.5,46.15-4.18,51.5,3.08,58h0A20.23,20.23,0,0,0,5,59.52a8.11,8.11,0,0,0,.89.57,4,4,0,0,0,.67.3.3.3,0,0,0,.4-.3A18,18,0,0,1,7,58H7a12.07,12.07,0,0,1,4.73-9.08c3.06-2.57,7.37-4.8,15-5.61,9.81-1,17.7,4.21,13.43,8a.27.27,0,0,0,.34.42c4-2.93,2.21-5.17.26-6.9m20.9-2.73a5.51,5.51,0,0,0-.9-.53c-.26-.13-.49-.22-.67-.3a.25.25,0,0,0-.38.26c.26,5.23-1.48,8.44-4.74,11.17C52.2,55,48.5,57,42.34,58h0c-.75.12-1.55.23-2.38.32a23.46,23.46,0,0,1-7-.32c-5.89-1.26-9.58-4.87-6.41-7.69a.27.27,0,0,0-.34-.42c-4,2.93-2.21,5.17-.26,6.9A16.29,16.29,0,0,0,27.69,58c6,3.2,18.14,2.8,27.17.16l.59-.17h0c9.63-3,16.14-8.85,6.16-15.89M62,57.88a.26.26,0,0,1,.34.13.28.28,0,0,1,0,.22c0,.12-.09.28-.17.47a3.2,3.2,0,0,1-.45.7c-6.74,8-19.69,7.94-29.64,4.88C27.3,62.8,23,60.52,20.45,58h0c-2.56-2.57-3.22-5.35-.58-7.76,1.95-1.76,4.57-3.52,11.14-3.2a.27.27,0,1,1,0,.54c-9.94,0-12.92,6.51-7.19,9.87l1,.55h0c4.9,2.56,10.4,3.29,15.9,3.38,6.19.09,12.44-.72,21-3.39h0a2.53,2.53,0,0,1,.36-.12M91.92,49.3c.31-2.8-1.1-4.32-4.06-4.32-3.78,0-6.28,2.18-7.13,6.14s.75,6.11,4.53,6.11A5.77,5.77,0,0,0,91,53.55h10.18c-2.24,6.23-8.08,9.54-17.15,9.54-10.13,0-14.43-4.09-12.75-12s7.7-12,17.84-12c9.51,0,14,3.65,12.9,10.14Zm20.11.28h5.14c2.42,0,3.74-.44,4.09-2.08s-.87-2-3.45-2H112.9Zm10.47-9.82c3.59,0,6,.28,7.28,1.16,1.48,1,2,2.74,1.56,4.94a7.79,7.79,0,0,1-5,5.77c2.21,1,2.22,2.26,1.8,4.85-.54,3.27-.93,5.13,0,5.66l-.07.35h-9.79c-.46-1.1.2-2.74.39-4.66.17-1.7-.53-2.27-2.7-2.27h-5.26l-1.47,6.93h-8.94l4.83-22.73Zm6.6,22.73h24.84l1.24-5.86h-16l.64-3h12.37l1.19-5.6H141l.57-2.71h15.27L158,39.76H133.93Zm26-6.93c-1,4.82,3,7.62,11.61,7.62,10.45,0,16-2.39,17.17-8.09.8-3.74-1.23-5.92-6.08-6.64L170,47.31c-2.2-.31-3.25-.59-3-1.6s1.42-1.51,3.5-1.51c2.74,0,4.06.75,4,2.17h10.23c.7-5.07-3.51-7.21-12.76-7.21-8.88,0-13.55,2.11-14.65,7.3-.81,3.81,1.47,6.11,6.78,6.77l6.4.82c2.06.25,3,.82,2.77,1.8s-1.54,1.63-3.91,1.63-3.65-.72-3.56-1.92Zm33.22,6.93h8.81l3.61-17H209l1.22-5.76H184.91l-1.22,5.76h8.21Zm29.55-12.91H223c2.42,0,3.74-.44,4.09-2.08s-.87-2-3.45-2h-4.91Zm10.46-9.82c3.59,0,6,.28,7.28,1.16,1.48,1,2,2.74,1.56,4.94a7.79,7.79,0,0,1-5,5.77c2.21,1,2.22,2.26,1.8,4.85-.54,3.27-.93,5.13,0,5.66l-.07.35h-9.79c-.46-1.1.2-2.74.39-4.66.17-1.7-.53-2.27-2.7-2.27h-5.26l-1.47,6.93h-8.94L211,39.76Zm7.4,11.36c1.67-7.87,7.71-12,17.84-12s14.43,4.09,12.76,12-7.7,12-17.84,12S234,59,235.71,51.12m9.15,0c-.84,4,.75,6.11,4.53,6.11s6.28-2.14,7.12-6.11S255.77,45,252,45s-6.29,2.18-7.13,6.14m19.89,11.37h8.31l2.83-13.32,6.71,13.32h9.88l4.83-22.73h-8.53L286,52.86l-6-13.1H269.58Z"/><path d="M294.56,59.8a2.72,2.72,0,1,1,2.73,2.69,2.68,2.68,0,0,1-2.73-2.69m2.73,2.25a2.24,2.24,0,1,0-2.19-2.25,2.17,2.17,0,0,0,2.19,2.25m-.57-.69h-.47v-3.1h1.18c.73,0,1.09.27,1.09.88a.81.81,0,0,1-.8.85l.88,1.37h-.53L297.26,60h-.54Zm.56-1.75c.4,0,.75,0,.75-.5s-.35-.45-.67-.45h-.64v1Z"/></svg>