<svg xmlns:cc="http://creativecommons.org/ns#" xmlns:dc="http://purl.org/dc/elements/1.1/" xmlns:inkscape="http://www.inkscape.org/namespaces/inkscape" xmlns:rdf="http://www.w3.org/1999/02/22-rdf-syntax-ns#" xmlns:sodipodi="http://sodipodi.sourceforge.net/DTD/sodipodi-0.dtd" xmlns:svg="http://www.w3.org/2000/svg" xmlns="http://www.w3.org/2000/svg" xmlns:xlink="http://www.w3.org/1999/xlink" id="svg4" x="0px" y="0px" viewBox="0 0 300 100" style="enable-background:new 0 0 300 100;" xml:space="preserve"><style type="text/css">	.st0{fill-rule:evenodd;clip-rule:evenodd;}</style><path id="path2" inkscape:connector-curvature="0" inkscape:export-filename="C:\Users\alex\sites\sonos-logo-4.png" inkscape:export-xdpi="73.91803" inkscape:export-ydpi="73.91803" class="st0" d=" M160.1,53.6l-29.3-27.4v46.1h8.7V46.8l29.3,27.4V28.1h-8.7V53.6L160.1,53.6z M92.2,25.6c-13.7,0-24.3,10.6-24.3,24.3 c-0.1,13,11.2,24.3,24.3,24.3c13.7,0,24.3-10.6,24.3-24.3S105.9,25.6,92.2,25.6 M92.2,65.5c-8.7,0-15.6-6.9-15.6-15.6 s6.8-15.6,15.6-15.6s15.6,6.9,15.6,15.6S100.9,65.5,92.2,65.5 M52.9,49.9c-2.5-1.9-5.6-3.1-10-4.4c-8.7-2.5-8.7-5-8.7-6.3 c0-2.5,3.1-5,7.5-5c3.7,0,6.9,1.9,8.1,2.5l0.6,0.6l6.9-5l-0.6-0.6c0,0-5.6-6.2-15-6.2c-4.4,0-8.7,1.3-11.8,3.7s-4.9,6.3-4.9,10 s1.9,7.5,5,10c2.5,1.9,5.6,3.1,10,4.4c8.7,2.5,8.7,5,8.7,6.2c0,2.5-3.1,5-7.5,5c-3.7,0-6.9-1.9-8.1-2.5l-0.6-0.6l-6.8,5l0.6,0.6 c0,0,5.6,6.2,15,6.2c4.4,0,8.7-1.3,11.8-3.7c3.1-2.5,5-6.2,5-10S56.1,53,52.9,49.9 M207.5,25.6c-13.7,0-24.3,10.6-24.3,24.3 s11.3,24.3,24.3,24.3c13.7,0,24.3-10.6,24.3-24.3S220.6,25.6,207.5,25.6 M207.5,65.5c-8.7,0-15.6-6.9-15.6-15.6s6.9-15.6,15.6-15.6 c8.6,0,15.6,6.9,15.6,15.6S215.6,65.5,207.5,65.5 M246.8,49.3c2.5,1.9,5.6,3.1,10,4.4c8.7,2.5,8.7,5,8.7,6.2c0,2.5-3.1,5-7.5,5 c-3.7,0-6.9-1.9-8.1-2.5h-0.6l-6.9,5L243,68c0,0,5.6,6.2,15,6.2c4.4,0,8.7-1.3,11.8-3.7c3.1-2.5,5-6.2,5-10c0-3.8-1.9-7.5-5-10 c-2.5-1.9-5.6-3.1-10-4.4c-8.7-2.5-8.7-5-8.7-6.2c0-2.5,3.1-5,7.5-5c3.7,0,6.9,1.9,8.1,2.5l0.6,0.6l6.9-5l-0.6-0.6 c0,0-5.6-6.2-15-6.2c-4.4,0-8.7,1.3-11.8,3.7c-3.1,2.5-5,6.2-5,10C241.1,43.7,243,46.8,246.8,49.3"></path></svg>