<svg id="Layer_1" data-name="Layer 1" xmlns="http://www.w3.org/2000/svg" viewBox="0 0 300 100"><defs><style>.cls-1{fill-rule:evenodd;}</style></defs><title>Marcas</title><path d="M43.51,41.26c-.3,0-.6,0-.9,0a8.83,8.83,0,0,0-.89,0l-.91-8.76a17.93,17.93,0,0,1,1.8-.09,17.73,17.73,0,0,1,1.79.09l-.89,8.76Z"/><path d="M39.9,41.68c-.28.09-.56.19-.84.31s-.55.25-.81.39L34,34.67a17.53,17.53,0,0,1,1.63-.79c.55-.23,1.11-.43,1.67-.61l2.61,8.41Z"/><path d="M37,43.28a9.38,9.38,0,0,0-1.24,1.28l-6.93-5.43A16.64,16.64,0,0,1,30,37.77c.42-.43.85-.84,1.3-1.22L37,43.28Z"/><path d="M34.81,46c-.14.26-.26.53-.38.81s-.21.56-.29.84l-8.46-2.44a15.56,15.56,0,0,1,.59-1.7A14.92,14.92,0,0,1,27,41.84L34.81,46Z"/><path d="M33.85,49.2c0,.3,0,.6,0,.9a8.7,8.7,0,0,0,0,.89l-8.76.91A17.78,17.78,0,0,1,25,50.1a17.39,17.39,0,0,1,.09-1.78l8.76.88Z"/><path d="M34.27,52.81c.09.28.19.56.31.85s.25.54.39.8l-7.71,4.26c-.29-.52-.55-1.07-.79-1.62S26,56,25.86,55.42l8.41-2.61Z"/><path d="M35.86,55.76a7.69,7.69,0,0,0,.62.66,7.32,7.32,0,0,0,.67.58l-5.43,6.94c-.47-.37-.92-.77-1.36-1.19s-.84-.85-1.22-1.3l6.72-5.69Z"/><path d="M38.53,57.9c.27.14.54.26.82.38s.56.21.84.29L37.75,67a15.56,15.56,0,0,1-1.7-.59,14.92,14.92,0,0,1-1.62-.75l4.1-7.79Z"/><path d="M41.69,58.74c.3,0,.6,0,.9,0a8.7,8.7,0,0,0,.89,0l.91,8.76a17.78,17.78,0,0,1-1.8.09,17.39,17.39,0,0,1-1.78-.09l.88-8.76Z"/><path d="M45.3,58.32a8.46,8.46,0,0,0,.84-.31q.42-.18.81-.39l4.26,7.71c-.52.28-1.06.55-1.62.79s-1.12.43-1.68.61L45.3,58.32Z"/><path d="M48.25,56.72a6.28,6.28,0,0,0,.66-.61,7.32,7.32,0,0,0,.58-.67l6.94,5.43c-.37.47-.77.92-1.19,1.36s-.85.84-1.3,1.22l-5.69-6.73Z"/><path d="M50.39,54.05a7.49,7.49,0,0,0,.38-.81c.11-.28.21-.56.29-.84l8.46,2.44a16.33,16.33,0,0,1-.59,1.7,14.92,14.92,0,0,1-.75,1.62l-7.79-4.11Z"/><path d="M51.38,50.92c0-.29,0-.59,0-.9s0-.59,0-.89l8.76-.91a17.93,17.93,0,0,1,.09,1.8,17.58,17.58,0,0,1-.09,1.79l-8.76-.89Z"/><path d="M51,47.31c-.09-.28-.2-.56-.31-.84a8.49,8.49,0,0,0-.39-.8L58,41.41A17.28,17.28,0,0,1,58.75,43a17.72,17.72,0,0,1,.62,1.67L51,47.31Z"/><path d="M49.36,44.36c-.19-.22-.39-.44-.61-.65s-.44-.41-.67-.59l5.43-6.93a16.64,16.64,0,0,1,1.36,1.18c.43.42.84.85,1.22,1.3l-6.73,5.69Z"/><path d="M46.69,42.22c-.26-.14-.53-.26-.81-.38s-.56-.21-.84-.29l2.43-8.46a15.72,15.72,0,0,1,1.71.59,14.92,14.92,0,0,1,1.62.75l-4.11,7.79Z"/><polygon points="136.41 65.06 144.46 65.06 144.46 41.44 155.96 41.44 155.96 35.14 124.87 35.14 124.87 41.44 136.41 41.44 136.41 65.06 136.41 65.06"/><path class="cls-1" d="M190.34,49.79c0,8.9,6.91,16,18.65,16s18.65-7.13,18.65-16c0-9.16-6.91-15.61-18.66-15.61s-18.64,6.45-18.64,15.61Zm9.33.63c0-5.4,2-10.16,9.24-10.24s10.26,4.7,9.85,10.09c-.39,5-2.62,9.31-9.85,9.31-7,0-9.24-4.31-9.24-9.16Z"/><polygon points="230.06 65.06 238.15 65.06 238.15 45.95 238.26 45.95 253.76 65.06 263.09 65.06 263.09 35.1 254.91 35.14 254.91 54.6 254.8 54.6 239.28 35.14 230.06 35.14 230.06 65.06 230.06 65.06"/><polygon points="64.37 65.08 89.72 65.08 89.72 58.71 72.45 58.71 72.45 35.1 64.37 35.1 64.37 65.08 64.37 65.08"/><path d="M123,35.1H115V53.42c0,4.58-2.6,6.39-8.55,6.39s-8.51-1.79-8.5-6.39V35.1h-8V53.42c0,8.38,6.33,12.4,16.53,12.4S123,61.76,123,53.42V35.1Z"/><path class="cls-1" d="M157.71,65.06h7.48V53.4h12.1c3.15,0,3.72,1.49,4.23,4.68.63,3.94,1.14,7.12,3.4,7h6.34c-1.83.37-2.36-4.87-2.75-7.33-1-6.6-2.15-6.92-5.23-7l0-.11c3.89-1.23,6.35-4.22,6.26-7.84-.13-4.83-3.48-8.12-11.33-7.63H157.71v30Zm7.37-23.82h10c3.72,0,6.31.54,6.31,3.51s-2.59,3.53-6.31,3.53h-10v-7Z"/><path class="cls-1" d="M275,60.83A4.16,4.16,0,1,0,270.84,65,4.16,4.16,0,0,0,275,60.83Zm-.48,0a3.68,3.68,0,1,1-3.69-3.67,3.68,3.68,0,0,1,3.69,3.67ZM269.29,63h.59V61h1.51c.95,0,.68.84.78,1.38l.1.58h.7c-.26-.4-.17-.49-.22-1.1-.07-.79-.09-.86-.56-1.16a1.16,1.16,0,0,0,.61-1.15c-.06-1-.75-1.17-1.46-1.17h-2V63Zm2.06-4.06c.36,0,.93.1.84.88-.06.59-.44.7-.84.7h-1.47V58.94Z"/><path d="M269.29,63V58.42h2c.71,0,1.4.13,1.46,1.17a1.16,1.16,0,0,1-.61,1.15c.47.3.49.37.56,1.16.05.61,0,.7.22,1.1h-.7l-.1-.58c-.1-.54.17-1.38-.78-1.38h-1.51v2Zm2.06-4.06h-1.47v1.58h1.47c.4,0,.78-.11.84-.7.09-.78-.48-.88-.84-.88Z"/></svg>