<svg id="Layer_1" data-name="Layer 1" xmlns="http://www.w3.org/2000/svg" viewBox="0 0 300 100"><title>Marcas</title><path d="M19.68,43.44l-1.57,1A8.39,8.39,0,0,0,11,40.83,8.8,8.8,0,0,0,2,50,8.8,8.8,0,0,0,11,59.17a8.31,8.31,0,0,0,7.1-3.65l1.53,1.12A10.21,10.21,0,0,1,11,61,10.64,10.64,0,0,1,0,50,10.64,10.64,0,0,1,11,39,10.12,10.12,0,0,1,19.68,43.44Z"/><path d="M33.5,39.27c4.74,0,7.41,2.16,7.41,6s-2.82,6-7.39,6h-.84l8.12,9.52H38.47l-8-9.52H27.18v9.52H25.31V39.27ZM27.18,41v8.48h6.31C37.05,49.51,39,48,39,45.23S37,41,33.49,41Z"/><path d="M61.27,60.73H46.49V39.27H61.16V41H48.36v8H60.8V50.8H48.36V59H61.27Z"/><path d="M81.63,42.92a11.35,11.35,0,0,0-6.71-2.11c-3.45,0-6,1.6-6,4.28,0,2.13,1.57,3.44,5.24,3.85l2.35.26c3.81.43,6.59,1.94,6.59,5.51,0,4.17-3.8,6.25-8.43,6.25a14.2,14.2,0,0,1-8.32-2.68l1-1.49a12.39,12.39,0,0,0,7.27,2.4c3.64,0,6.5-1.43,6.5-4.33,0-2.33-1.87-3.46-5.44-3.86l-2.44-.28c-3.93-.44-6.3-2.21-6.3-5.5,0-4,3.52-6.18,7.94-6.18A12.88,12.88,0,0,1,82.6,41.4Z"/><path d="M103.65,41H95.91V60.73H94V41H86.31V39.27h17.34Z"/><path d="M116.3,39.27c4.74,0,7.41,2.16,7.41,6s-2.83,6-7.4,6h-.84l8.13,9.52h-2.33l-8-9.52H110v9.52h-1.87V39.27ZM110,41v8.48h6.3c3.56,0,5.49-1.52,5.49-4.28s-2-4.2-5.49-4.2Z"/><path d="M150,50a11,11,0,0,1-22,0,11,11,0,0,1,22,0Zm-20,0A9,9,0,1,0,148,50,9,9,0,1,0,130,50Z"/><path d="M173.37,60.73h-1.69L157.62,42.49l0,18.24h-1.87V39.27h1.69L171.5,57.51V39.27h1.87Z"/><path d="M192.66,47.91H203V39.27h4.28V60.73H203V51.9H192.66v8.83h-4.28V39.27h4.28Z"/><path d="M234.29,50c0,6.41-4.68,11.13-11.29,11.13S211.73,56.41,211.73,50,216.39,38.87,223,38.87,234.29,43.59,234.29,50Zm-18.1,0a6.81,6.81,0,1,0,13.62,0,6.81,6.81,0,1,0-13.62,0Z"/><path d="M262.44,60.73h-4.28V44.53l-5.31,14.13h-4.52l-5.31-14V60.73h-4.28V39.27H245l5.58,14.49,5.57-14.49h6.27Z"/><path d="M284,60.73h-16V39.27h15.92v3.92H272.2V48h11.1v3.92H272.2v4.94H284Z"/><path d="M291.93,39.81h-2.24v5.76H289V39.81H286.7v-.7h5.23Z"/><path d="M300,45.57h-.74V39.94L297,44.86h-.78L294,40v5.6h-.74V39.11h1.13L296.61,44l2.26-4.88H300Z"/></svg>